<?xml version="1.0" standalone="no"?><!DOCTYPE svg PUBLIC "-//W3C//DTD SVG 1.1//EN" "http://www.w3.org/Graphics/SVG/1.1/DTD/svg11.dtd"><svg t="1590634669548" class="icon" viewBox="0 0 1024 1024" version="1.1" xmlns="http://www.w3.org/2000/svg" p-id="2036" xmlns:xlink="http://www.w3.org/1999/xlink" width="200" height="200"><defs><style type="text/css">:not(i):not(tt):not(kbd):not(samp):not(var) { font-family: "Ping Hei" !important; }
</style></defs><path d="M512.00163733 655.09258987c-26.34399467 0-47.6975296 21.35462613-47.6975296 47.69862186 0 26.3494528 21.35353493 47.70189547 47.6975296 47.70189547 26.33307947 0 47.6975296-21.35353493 47.6975296-47.70189547C559.69916693 676.45267413 538.34017493 655.09258987 512.00163733 655.09258987L512.00163733 655.09258987zM368.89813227 273.49052053l286.19500266 0 0 333.91545494L368.89813227 607.40597547 368.89813227 273.49052053 368.89813227 273.49052053zM512.00163733 35.00941973c-263.431216 0-476.99385493 213.55281493-476.99385493 476.99167147C35.0077824 775.42903253 248.57042133 988.99058027 512.00163733 988.99058027 775.43394453 988.99058027 988.9911264 775.42903253 988.9911264 512.0010912 988.9911264 248.56223573 775.43394453 35.00941973 512.00163733 35.00941973L512.00163733 35.00941973zM702.79612267 750.4931072c0 26.35490987-21.35462613 47.70080427-47.70189547 47.70080427L368.89813227 798.19391147c-26.3418112 0-47.69098027-21.3469856-47.69098027-47.70080427L321.207152 273.49052053c0-26.32653013 21.34916907-47.6866144 47.69098027-47.6866144l286.19500266 0c26.35272747 0 47.70189547 21.36008427 47.70189547 47.6866144L702.79503147 750.4931072 702.79612267 750.4931072zM702.79612267 750.4931072" p-id="2037" fill="#1ac150"></path></svg>