<?xml version="1.0" standalone="no"?><!DOCTYPE svg PUBLIC "-//W3C//DTD SVG 1.1//EN" "http://www.w3.org/Graphics/SVG/1.1/DTD/svg11.dtd"><svg t="1590634699395" class="icon" viewBox="0 0 1024 1024" version="1.1" xmlns="http://www.w3.org/2000/svg" p-id="2190" xmlns:xlink="http://www.w3.org/1999/xlink" width="200" height="200"><defs><style type="text/css">:not(i):not(tt):not(kbd):not(samp):not(var) { font-family: "Ping Hei" !important; }
</style></defs><path d="M512 34.13333333C248.08106667 34.13333333 34.13333333 248.1152 34.13333333 512c0 263.91893333 213.94773333 477.86666667 477.86666667 477.86666667s477.86666667-213.94773333 477.86666667-477.86666667c0-263.8848-213.94773333-477.86666667-477.86666667-477.86666667m273.06666667 510.29333334h-129.91146667l-35.39626667-150.2208-50.61973333 339.28533333c-0.34133333 2.21866667-0.34133333 2.21866667-1.87733333 6.48533333-3.82293333 8.02133333-3.82293333 8.02133333-22.45973334 10.88853334-10.88853333-6.82666667-10.88853333-6.82666667-12.42453333-10.82026667-1.09226667-2.73066667-1.09226667-2.73066667-1.60426667-4.5056l-77.14133333-301.7728-46.45546667 239.65013333c-0.512 2.4576-0.512 2.4576-2.18453333 6.38293334-3.072 5.8368-3.072 5.8368-15.872 10.82026666-13.65333333-3.4816-13.65333333-3.4816-17.47626667-9.28426666-2.048-3.8912-2.048-3.8912-2.73066666-6.38293334l-33.62133334-125.91786666H238.93333333v-40.99413334h125.40586667l20.61653333 77.34613334 46.8992-241.664c0.44373333-2.2528 0.44373333-2.2528 1.97973334-6.00746667 2.73066667-5.76853333 2.73066667-5.76853333 16.21333333-11.19573333 14.336 4.096 14.336 4.096 17.68106667 9.9328 1.80906667 3.75466667 1.80906667 3.75466667 2.42346666 6.0416l74.752 292.4544L596.24106667 290.816c0.44373333-2.52586667 0.44373333-2.52586667 2.18453333-6.99733333 4.096-7.4752 4.096-7.4752 20.2752-10.78613334 11.60533333 5.80266667 11.60533333 5.80266667 13.9264 10.51306667 1.46773333 3.34506667 1.46773333 3.34506667 2.048 5.5296l50.4832 214.39146667H785.06666667v40.96z" p-id="2191" fill="#ef8b0a"></path></svg>